<?xml version="1.0" encoding="utf-8"?>
<!-- Generator: Adobe Illustrator 21.1.0, SVG Export Plug-In . SVG Version: 6.00 Build 0)  -->
<svg version="1.1" id="Layer_1" xmlns="http://www.w3.org/2000/svg" xmlns:xlink="http://www.w3.org/1999/xlink" x="0px" y="0px"
	 viewBox="0 0 24 24" enable-background="new 0 0 24 24" xml:space="preserve">
<path fill="#0F4591" d="M14.3,6.9v2.2c-0.8,0.1-1.5,0.5-2,1.1V9.8c0.5-0.6,0.8-1.3,0.8-2.1c0-0.8-0.3-1.5-0.8-2.1V3.4h-0.7v2.3
	c-1.1,1.2-1.1,2.9,0,4.1v0.4c-0.5-0.6-1.2-1-2-1.1V6.9H8.9v9.5v0.1h0c0,1.5,1.2,2.8,2.7,3v1.2h0.7v-1.2c1.5-0.2,2.7-1.4,2.7-3h0
	v-0.1V9.5V6.9H14.3z M12.4,18.6c0.2-1,0.9-1.7,1.9-1.9C14.1,17.7,13.4,18.5,12.4,18.6 M9.7,16.7c1,0.2,1.7,0.9,1.9,1.9
	C10.6,18.5,9.9,17.7,9.7,16.7 M9.7,13.2C9.7,13.2,9.7,13.2,9.7,13.2c1,0.2,1.8,0.9,1.9,1.9c0,0.1,0,0.3,0,0.4v0.1v1.4
	c-0.5-0.6-1.2-1-2-1.1V13.2z M9.7,9.9C9.7,9.9,9.7,9.9,9.7,9.9c1,0.2,1.8,0.9,1.9,1.9c0,0.1,0,0.3,0,0.4v1.4c-0.5-0.6-1.2-1-2-1.1
	V9.9z M14.3,9.9C14.3,9.9,14.3,9.9,14.3,9.9C14.3,9.9,14.3,9.9,14.3,9.9c-0.2,1-0.9,1.8-1.9,2c0,0,0,0,0,0c0,0,0,0,0,0
	C12.6,10.8,13.3,10,14.3,9.9 M12.4,17.1v-1.4c0-0.1,0-0.3,0-0.4c0.2-1,0.9-1.7,1.9-1.9c0,0,0,0,0,0V16
	C13.6,16.1,12.9,16.5,12.4,17.1 M14.3,12.6c-0.8,0.1-1.5,0.5-2,1.1v-1.1c0.8-0.1,1.5-0.5,2-1.1V12.6z M12,6.4
	c0.3,0.4,0.4,0.9,0.4,1.4c0,0.5-0.2,1-0.4,1.4C11.4,8.3,11.4,7.2,12,6.4"/>
</svg>
