<?xml version="1.0" encoding="utf-8"?>
<!-- Generator: Adobe Illustrator 21.1.0, SVG Export Plug-In . SVG Version: 6.00 Build 0)  -->
<svg version="1.1" id="Layer_1" xmlns="http://www.w3.org/2000/svg" xmlns:xlink="http://www.w3.org/1999/xlink" x="0px" y="0px"
	 viewBox="0 0 24 24" enable-background="new 0 0 24 24" xml:space="preserve">
<path fill="#0F4591" d="M16.4,6.3H16c-0.6,0-1.1,0.1-1.6,0.4l-0.1-1.1c0-1.3-1.1-2.3-2.4-2.3c-1.3,0-2.3,1-2.4,2.3L9.6,6.7
	C9.1,6.4,8.5,6.3,8,6.3H7.6v9.9c0,1.4,0.9,2.7,2.2,3.1c0.1,0.8,0.7,1.4,1.5,1.4h1.4c0.8,0,1.4-0.6,1.5-1.4c1.3-0.5,2.2-1.7,2.2-3.1
	L16.4,6.3z M15.7,16.2c0,0.9-0.5,1.8-1.2,2.2c0.5-0.6,0.8-1.3,0.8-2.1c0-0.1,0-0.3,0-0.4l-0.7-8.5c0.3-0.2,0.7-0.4,1.2-0.5V16.2z
	 M12.7,20h-1.4c-0.3,0-0.6-0.2-0.7-0.5c0.1,0,0.3,0,0.4,0h1h1c0.1,0,0.3,0,0.4,0C13.3,19.8,13,20,12.7,20 M8.3,7
	c0.4,0.1,0.8,0.2,1.2,0.5L8.8,16c0,0.1,0,0.3,0,0.4c0,0.8,0.3,1.5,0.8,2.1c-0.7-0.5-1.2-1.3-1.2-2.2V7z M10.4,5.7L10.4,5.7
	c0-0.6,0.3-1.1,0.7-1.4L11,5.8h-0.6L10.4,5.7z M13.6,5.6L13.6,5.6l0.1,1.6l0,0.5l0,0.5l0,0.2h-0.1h-0.4h-0.2l0-0.4l-0.2-3.7
	C13.4,4.6,13.6,5.1,13.6,5.6 M9.9,11.7h0.7h0.1l-0.1,1.9h-0.1H9.8L9.9,11.7z M11.5,11.7h1.1l0.1,1.9h-1.2L11.5,11.7z M11.3,16.1
	L11.3,16.1l0-1.2l0-0.7h1.3l0,0.7l0,1.2l0,0H11.3z M12.5,11h-1l0.1-1.9h0.9L12.5,11z M9.6,16L9.6,16l0.1-1.8h0.9h0l0,0.7l-0.1,1.2
	L9.6,16C9.6,16.1,9.6,16.1,9.6,16 M10.5,16.9l0,1.1l0,0.4c-0.1-0.1-0.2-0.1-0.2-0.2c-0.3-0.3-0.6-0.8-0.7-1.2H10.5z M11.2,18.7
	l0-0.3l0-0.4l0-0.4l0-0.8h1.5l0,0.8l0,0.4l0,0.4l0,0.3c-0.3,0.1-0.5,0.1-0.8,0.1S11.4,18.8,11.2,18.7 M13.5,18.3l0-0.4l0-1.1h0.9
	c-0.1,0.5-0.3,0.9-0.7,1.2C13.7,18.2,13.6,18.2,13.5,18.3 M13.4,16.1l-0.1-1.2l-0.1-3.2h0.1h0.7l0.3,4.3l0,0c0,0,0,0.1,0,0.1H13.4z
	 M13.4,11h-0.2l-0.1-1.9h0.3h0.5L14,11H13.4z M12.2,4l0.2,4.4h-0.8L11.8,4c0.1,0,0.1,0,0.2,0C12.1,4,12.1,4,12.2,4 M10.3,6.6H11
	L10.9,8l0,0.9L10.8,11h-0.2H10l0.2-2.8l0-0.5l0-0.5L10.3,6.6z"/>
</svg>
