<?xml version="1.0" encoding="utf-8"?>
<!-- Generator: Adobe Illustrator 21.1.0, SVG Export Plug-In . SVG Version: 6.00 Build 0)  -->
<svg version="1.1" id="Layer_1" xmlns="http://www.w3.org/2000/svg" xmlns:xlink="http://www.w3.org/1999/xlink" x="0px" y="0px"
	 viewBox="0 0 24 24" enable-background="new 0 0 24 24" xml:space="preserve">
<path fill="#0F4591" d="M17.4,11.1h-0.7h0c-0.4,0-0.8,0.1-1.2,0.4c-0.3-0.3-0.7-0.4-1.2-0.4h0h-0.7v0.7c0,0.4,0.1,0.8,0.4,1.2
	c-0.3,0.3-0.4,0.7-0.4,1.2v0.7h0.2h0.5h0c0.2,0,0.3,0,0.5-0.1c-0.5,1-1.4,1.7-2.5,1.8v0v-5.9c1.3-0.1,2.5-0.6,3.4-1.5
	c0.2,0.1,0.5,0.2,0.8,0.2V8.7c-0.4,0-0.7-0.3-0.7-0.7V7.8H15V8c0,0.3,0.1,0.5,0.2,0.7c-0.8,0.8-1.8,1.2-2.9,1.3V8.7
	c1.7-0.2,3-1.5,3-3.2c0.3-0.1,0.5-0.2,0.7-0.4l-0.5-0.5c-0.3,0.3-0.8,0.3-1.1,0l-0.1-0.1l-0.5,0.5L14,5.2c0.2,0.2,0.4,0.3,0.6,0.3
	c0,0,0,0,0.1,0c-0.1,1.3-1,2.3-2.3,2.5c0,0,0,0,0,0V6.8c0.7-0.1,1.2-0.7,1.2-1.5v-1C13.8,4.3,14,4.2,14.3,4l-0.5-0.5
	c-0.3,0.3-0.8,0.3-1.1,0l-0.1-0.1l-0.5,0.5L12.2,4c0.2,0.2,0.4,0.3,0.6,0.4v0.3v0.7c0,0.4-0.3,0.7-0.6,0.8c-0.1,0-0.1,0-0.2,0
	s-0.1,0-0.2,0c-0.3-0.1-0.6-0.4-0.6-0.8V4.7V4.4C11.5,4.3,11.8,4.2,12,4l-0.5-0.5c-0.3,0.3-0.8,0.3-1.1,0l-0.1-0.1L9.8,3.9L9.9,4
	c0.2,0.2,0.4,0.3,0.6,0.4v1c0,0.7,0.5,1.3,1.1,1.4v1.1V8c-1.2-0.2-2.1-1.2-2.2-2.4c0,0,0.1,0,0.1,0c0.2-0.1,0.5-0.2,0.6-0.4L9.6,4.7
	c-0.3,0.3-0.8,0.3-1.1,0L8.5,4.5L8,5.1l0.1,0.1c0.2,0.2,0.4,0.3,0.6,0.4c0.1,1.7,1.3,3,2.9,3.2v5.7v0.1c-1.1-0.1-2-0.8-2.5-1.8
	c0.2,0,0.3,0.1,0.5,0.1h0h0.5h0.2V12c0-0.4-0.1-0.8-0.4-1.2c0.3-0.3,0.4-0.7,0.4-1.2V8.9H9.7h0c-0.4,0-0.8,0.1-1.2,0.4
	C8.1,9.1,7.7,8.9,7.3,8.9h0H6.6v0.7c0,0.4,0.1,0.8,0.4,1.2c-0.3,0.3-0.4,0.7-0.4,1.2v0.7h0.7h0c0.4,0,0.7-0.1,1-0.3
	c0.5,1.5,1.8,2.6,3.3,2.7v5.4H12h0.4v-3.2c1.6-0.1,2.9-1.3,3.4-2.8c0.3,0.2,0.6,0.3,1,0.3h0h0.7v-0.7c0-0.4-0.1-0.8-0.4-1.2
	c0.3-0.3,0.4-0.7,0.4-1.2V11.1z M8.5,11.1c-0.1,0.2-0.2,0.4-0.3,0.6C7.9,11.9,7.6,12,7.3,12h0c0-0.5,0.3-1,0.8-1.1c0,0,0.1,0,0.1,0
	c-0.5-0.1-0.9-0.6-0.9-1.2h0c0.6,0,1,0.4,1.2,0.9c0.1-0.5,0.6-0.9,1.2-0.9h0c0,0.6-0.4,1-0.9,1.2c0,0,0.1,0,0.1,0
	C9.3,11,9.7,11.5,9.7,12h0c0,0-0.1,0-0.1,0c-0.2,0-0.5-0.1-0.6-0.3C8.7,11.6,8.5,11.3,8.5,11.1 M15.8,13
	C15.8,13.1,15.9,13.1,15.8,13c0.6,0.2,0.9,0.6,0.9,1.2h0c-0.3,0-0.6-0.1-0.8-0.3c-0.2-0.2-0.3-0.4-0.3-0.6c0,0,0,0,0,0
	c-0.1,0.2-0.2,0.5-0.4,0.6c-0.2,0.1-0.4,0.2-0.6,0.3c0,0-0.1,0-0.1,0h0c0-0.5,0.3-1,0.8-1.1c0,0,0.1,0,0.1,0h0
	c-0.5-0.1-0.9-0.6-0.9-1.2h0c0.6,0,1,0.4,1.2,0.9c0.1-0.5,0.6-0.9,1.2-0.9h0C16.7,12.4,16.3,12.9,15.8,13"/>
</svg>
