<?xml version="1.0" encoding="utf-8"?>
<!-- Generator: Adobe Illustrator 21.1.0, SVG Export Plug-In . SVG Version: 6.00 Build 0)  -->
<svg version="1.1" id="Layer_1" xmlns="http://www.w3.org/2000/svg" xmlns:xlink="http://www.w3.org/1999/xlink" x="0px" y="0px"
	 viewBox="0 0 24 24" enable-background="new 0 0 24 24" xml:space="preserve">
<path fill="#0F4591" d="M15.8,6.5c-0.9,0-1.7,0.4-2.2,1.1C13,5.2,10.8,3.4,8.2,3.4H7.8V14c0,2.9,2.3,5.4,5.2,5.5v1.1h0.7v-1.1
	c1.4-0.2,2.4-1.3,2.4-2.7V6.5H15.8z M15.4,16.8c0,1-0.7,1.8-1.7,2v-2.4H13v2.4c-2.5-0.2-4.5-2.3-4.5-4.8V4.1C11.1,4.3,13,6.4,13,8.9
	v5.5h0.7V9.3c0-1,0.7-1.8,1.7-2V16.8z M9.6,13.3H9.3v1.4c0,1.4,1.1,2.6,2.6,2.6h0.4v-1.4C12.2,14.4,11,13.3,9.6,13.3z M11.5,16.5
	c-0.8-0.2-1.5-0.9-1.5-1.8v-0.6c0.8,0.2,1.5,0.9,1.5,1.8V16.5z M9.6,9.5H9.3v1.4c0,1.4,1.1,2.6,2.6,2.6h0.4V12
	C12.2,10.6,11,9.5,9.6,9.5z M11.5,12.7c-0.8-0.2-1.5-0.9-1.5-1.8v-0.6c0.8,0.2,1.5,0.9,1.5,1.8V12.7z M9.6,5.6H9.3V7
	c0,1.4,1.1,2.6,2.6,2.6h0.4V8.2C12.2,6.8,11,5.6,9.6,5.6z M11.5,8.8C10.6,8.6,10,7.9,10,7V6.4c0.8,0.2,1.5,0.9,1.5,1.8V8.8z"/>
</svg>
