<?xml version="1.0" encoding="utf-8"?>
<!-- Generator: Adobe Illustrator 21.1.0, SVG Export Plug-In . SVG Version: 6.00 Build 0)  -->
<svg version="1.1" id="Layer_1" xmlns="http://www.w3.org/2000/svg" xmlns:xlink="http://www.w3.org/1999/xlink" x="0px" y="0px"
	 viewBox="0 0 24 24" enable-background="new 0 0 24 24" xml:space="preserve">
<path fill="#0F4591" d="M15.1,14.4c-1.1,0-2,0.7-2.3,1.6c-0.4-0.5-1.1-0.8-1.8-0.8H9.7v0.4c0,1.3,1.1,2.4,2.4,2.4h0.6v2.6h0.7v-3.4
	H14c1.3,0,2.4-1.1,2.4-2.4v-0.4H15.1z M12.1,17.2c-0.8,0-1.5-0.5-1.6-1.3H11c0.8,0,1.5,0.5,1.6,1.3H12.1z M14,16.4h-0.5
	c0.2-0.7,0.8-1.3,1.6-1.3h0.5C15.5,15.9,14.8,16.4,14,16.4z M11.4,12.2l0.3-0.3c0,0,0,0,0,0v0.4c0,0.8,0.4,1.5,1.1,1.9l0.2,0.1
	l0.2-0.1c0.7-0.4,1.1-1.1,1.1-1.9v-0.7h-0.7v0.7c0,0.4-0.2,0.8-0.5,1.1c-0.3-0.3-0.5-0.7-0.5-1.1v-0.2c0.2,0,0.4,0,0.5,0v-0.7
	c-1.4,0-2.6-1.2-2.6-2.6c0-1.4,1.2-2.6,2.6-2.6V5.5c-0.2,0-0.4,0-0.5,0V5.4c0-0.4,0.2-0.8,0.5-1.1c0.3,0.3,0.5,0.7,0.5,1.1V6h0.7
	V5.4c0-0.8-0.4-1.5-1.1-1.9l-0.2-0.1l-0.2,0.1c-0.7,0.4-1.1,1.1-1.1,1.9v0.4c0,0,0,0,0,0l-0.3-0.3c-0.5-0.5-1.3-0.8-2.1-0.6L9.2,5
	L9.1,5.2c-0.2,0.7,0,1.5,0.6,2.1L10,7.5c0,0,0,0,0,0H9.6C8.8,7.6,8.1,8,7.7,8.7L7.6,8.8L7.7,9c0.4,0.7,1.1,1.1,1.9,1.1H10
	c0,0,0,0,0,0l-0.3,0.3c-0.5,0.5-0.8,1.3-0.6,2.1l0.1,0.2l0.2,0.1c0.2,0,0.4,0.1,0.6,0.1C10.5,12.8,11,12.6,11.4,12.2z M9.8,9.4H9.6
	c-0.4,0-0.8-0.2-1.1-0.5c0.3-0.3,0.7-0.5,1.1-0.5h0.2c0,0.2,0,0.4,0,0.5C9.7,9,9.8,9.2,9.8,9.4z M9.8,5.6c0.4,0,0.8,0.1,1.2,0.4
	l0.2,0.2c-0.3,0.2-0.5,0.5-0.7,0.7l-0.2-0.2C9.9,6.4,9.8,6,9.8,5.6z M10.2,11l0.2-0.2c0.2,0.3,0.5,0.5,0.7,0.7l-0.2,0.2
	c-0.3,0.3-0.7,0.5-1.2,0.4C9.7,11.7,9.9,11.3,10.2,11z M11.1,8.8c0,1.1,0.9,1.9,1.9,1.9c1.1,0,1.9-0.9,1.9-1.9
	c0-1.1-0.9-1.9-1.9-1.9C12,6.9,11.1,7.8,11.1,8.8z M14.3,8.8c0,0.7-0.5,1.2-1.2,1.2c-0.7,0-1.2-0.5-1.2-1.2c0-0.7,0.5-1.2,1.2-1.2
	C13.7,7.7,14.3,8.2,14.3,8.8z"/>
</svg>
