<?xml version="1.0" encoding="utf-8"?>
<!-- Generator: Adobe Illustrator 21.1.0, SVG Export Plug-In . SVG Version: 6.00 Build 0)  -->
<svg version="1.1" id="Layer_1" xmlns="http://www.w3.org/2000/svg" xmlns:xlink="http://www.w3.org/1999/xlink" x="0px" y="0px"
	 viewBox="0 0 24 24" enable-background="new 0 0 24 24" xml:space="preserve">
<path fill="#0F4591" d="M14.3,6.2V7c-0.3,0-0.6,0.1-0.9,0.2c0.1-0.2,0.1-0.5,0.1-0.8c0-0.9-0.4-1.7-1.2-2.2V3.4H12h-0.4v0.9
	c-0.7,0.5-1.2,1.3-1.2,2.2c0,0.3,0,0.5,0.1,0.8C10.3,7.1,10,7,9.7,7V6.2H9V7v1v0.7l0.7,0V8V7.7c1,0.2,1.8,1,1.9,2.1V10v1.4
	c-0.5-0.6-1.4-1-2.3-1H9V12c0,0.6,0.2,1.1,0.4,1.6c0,0-0.1,0-0.1,0H9v1.7c0,1.2,0.8,2.3,1.9,2.8v-0.8c-0.7-0.4-1.1-1.1-1.1-2v-1
	c1,0.2,1.8,1,1.9,2.1v0v0c0,0,0,0.1,0,0.1v1h0v0.7h0l0,0v2.4h0.7v-2.4l0,0c1.5-0.2,2.6-1.4,2.6-3v-1.7h-0.4c-0.9,0-1.7,0.4-2.3,1
	v-0.3l0,0l0,0v-1c0,0,0-0.1,0-0.1c0,0,0,0,0,0c0.1-1.1,0.9-2,1.9-2.1v1h0.4H15v-1.7h-0.4c0,0-0.1,0-0.1,0c0.3-0.5,0.5-1,0.5-1.6V8V7
	V6.2H14.3z M11.6,13.2c0,0,0,0.1,0,0.1v1c-1.1-0.2-1.9-1.1-1.9-2.2v-1C10.8,11.2,11.6,12.1,11.6,13.2L11.6,13.2z M12.4,16.5
	C12.4,16.5,12.4,16.5,12.4,16.5c0.1-1.1,0.9-2,1.9-2.1v1c0,1.1-0.8,2.1-1.9,2.2c0,0,0,0,0,0c0,0,0,0,0,0v-1
	C12.4,16.5,12.4,16.5,12.4,16.5 M12,8.1c-0.5-0.4-0.8-1-0.8-1.6c0-0.6,0.3-1.2,0.8-1.6c0.5,0.4,0.8,1,0.8,1.6
	C12.8,7.1,12.5,7.7,12,8.1 M14.3,8v0.7c0,1.1-0.8,2.1-1.9,2.2c0,0,0,0,0,0v-1c0,0,0,0,0-0.1c0-1.1,0.8-2,1.9-2.2V8z"/>
</svg>
